<?xml version="1.0" encoding="iso-8859-1"?>
<!-- Generator: Adobe Illustrator 19.0.0, SVG Export Plug-In . SVG Version: 6.00 Build 0)  -->
<svg version="1.1" id="Capa_1" xmlns="http://www.w3.org/2000/svg" xmlns:xlink="http://www.w3.org/1999/xlink" x="0px" y="0px"
	 viewBox="0 0 512 512" style="enable-background:new 0 0 512 512;" xml:space="preserve">
<path style="fill:#59AA33;" d="M120,54h272c11.046,0,20,8.954,20,20v408c0,11.046-8.954,20-20,20H120c-11.046,0-20-8.954-20-20V74
	C100,62.954,108.954,54,120,54z"/>
<rect x="140" y="94" style="fill:#FFFFFF;" width="232" height="368"/>
<rect x="140" y="346.48" style="fill:#A3ED5C;" width="232" height="115.53"/>
<path style="fill:#12ADDD;" d="M334,10H178c-2.209,0-4,1.791-4,4v40h164V14C338,11.791,336.209,10,334,10z"/>
<g>
	<path style="fill:#A3ED5C;" d="M192.5,276.589c26.434,26.434,60.155,13.137,60.155,13.137s13.298-33.721-13.137-60.155
		s-59.833-13.187-60.156-13.138C179.362,216.432,166.066,250.154,192.5,276.589z"/>
	<path style="fill:#A3ED5C;" d="M332.637,216.432c-0.324-0.049-33.722-13.296-60.156,13.138s-13.137,60.155-13.137,60.155
		s33.721,13.298,60.155-13.137C345.933,250.154,332.637,216.432,332.637,216.432z"/>
</g>
<path d="M392,44h-44V14c0-7.72-6.28-14-14-14H178c-7.72,0-14,6.28-14,14v30h-44c-16.542,0-30,13.458-30,30v408
	c0,16.542,13.458,30,30,30h272c16.542,0,30-13.458,30-30V74C422,57.458,408.542,44,392,44z M184,20h144v24H184V20z M402,482
	c0,5.514-4.486,10-10,10H120c-5.514,0-10-4.486-10-10V74c0-5.514,4.486-10,10-10h54h164h54c5.514,0,10,4.486,10,10V482z"/>
<path d="M303,452H150V128.172c0-5.523-4.478-10-10-10s-10,4.477-10,10V462c0,5.523,4.478,10,10,10h163c5.522,0,10-4.477,10-10
	S308.522,452,303,452z"/>
<path d="M338.01,452H338c-5.522,0-9.995,4.477-9.995,10s4.482,10,10.005,10s10-4.477,10-10S343.533,452,338.01,452z"/>
<path d="M372,84H209c-5.522,0-10,4.477-10,10s4.478,10,10,10h153v323.828c0,5.523,4.478,10,10,10s10-4.477,10-10V94
	C382,88.477,377.522,84,372,84z"/>
<path d="M174.01,104c5.523,0,10-4.477,10-10s-4.477-10-10-10H174c-5.522,0-9.995,4.477-9.995,10S168.487,104,174.01,104z"/>
<path d="M174,356.475h72v11.224l-21.738,21.738c-3.905,3.905-3.905,10.237,0,14.142c1.953,1.953,4.512,2.929,7.071,2.929
	s5.118-0.977,7.071-2.929l7.596-7.596v16.004c0,5.523,4.478,10,10,10c5.522,0,10-4.477,10-10v-15.686l7.276,7.276
	c1.953,1.953,4.512,2.929,7.071,2.929c2.559,0,5.118-0.977,7.071-2.929c3.905-3.905,3.905-10.237,0-14.142L266,368.018v-11.543h72
	c5.522,0,10-4.477,10-10s-4.478-10-10-10h-72v-34.663c3.83,0.718,8.521,1.293,13.778,1.293c13.746,0,31.271-3.925,46.792-19.446
	c30.718-30.718,16.011-69.269,15.369-70.895c-1.104-2.802-3.398-4.928-6.21-5.842c-6.814-2.39-41.979-12.763-70.32,15.577
	c-3.792,3.793-6.89,7.705-9.41,11.652c-2.52-3.947-5.617-7.859-9.41-11.652c-28.236-28.235-63.245-18.042-70.316-15.578
	c-2.813,0.914-5.108,3.04-6.214,5.843c-0.642,1.626-15.349,40.177,15.369,70.895l0,0c15.523,15.522,33.045,19.445,46.792,19.445
	c5.257,0,9.949-0.576,13.779-1.294v34.664h-72c-5.522,0-10,4.477-10,10S168.478,356.475,174,356.475z M279.552,236.642
	c16.248-16.249,35.821-14.312,45.061-12.139c2.028,8.686,4.226,28.604-12.185,45.015c-10.664,10.664-22.762,13.483-32.324,13.591
	l22.955-22.952c3.906-3.905,3.906-10.236,0.001-14.142c-3.903-3.904-10.236-3.906-14.142,0l-22.884,22.881
	c-0.002-0.405-0.009-0.813-0.018-1.224C266.364,258.317,269.385,246.808,279.552,236.642z M199.571,269.518
	c-16.448-16.449-14.242-36.316-12.194-45.013c9.238-2.174,28.817-4.116,45.07,12.137c10.065,10.065,13.14,21.407,13.545,30.69
	c-0.014,0.526-0.024,1.048-0.027,1.564l-22.884-22.881c-3.904-3.905-10.237-3.905-14.142,0c-3.905,3.906-3.905,10.237,0.001,14.142
	l22.93,22.927C222.303,282.966,210.203,280.149,199.571,269.518L199.571,269.518z"/>
<g>
</g>
<g>
</g>
<g>
</g>
<g>
</g>
<g>
</g>
<g>
</g>
<g>
</g>
<g>
</g>
<g>
</g>
<g>
</g>
<g>
</g>
<g>
</g>
<g>
</g>
<g>
</g>
<g>
</g>
</svg>
