<svg width="192" height="184" viewBox="0 0 192 184" fill="none" xmlns="http://www.w3.org/2000/svg">
<rect width="192" height="184" rx="8" fill="#E1FAEC"/>
<path d="M68.6016 130.398H65.9297V135H64.4219V123.625H68.1875C69.4688 123.625 70.4531 123.917 71.1406 124.5C71.8333 125.083 72.1797 125.932 72.1797 127.047C72.1797 127.755 71.987 128.372 71.6016 128.898C71.2214 129.424 70.6901 129.818 70.0078 130.078L72.6797 134.906V135H71.0703L68.6016 130.398ZM65.9297 129.172H68.2344C68.9792 129.172 69.5703 128.979 70.0078 128.594C70.4505 128.208 70.6719 127.693 70.6719 127.047C70.6719 126.344 70.4609 125.805 70.0391 125.43C69.6224 125.055 69.0182 124.865 68.2266 124.859H65.9297V129.172ZM77.5703 135.156C76.4245 135.156 75.4922 134.781 74.7734 134.031C74.0547 133.276 73.6953 132.268 73.6953 131.008V130.742C73.6953 129.904 73.8542 129.156 74.1719 128.5C74.4948 127.839 74.9427 127.323 75.5156 126.953C76.0938 126.578 76.7188 126.391 77.3906 126.391C78.4896 126.391 79.3438 126.753 79.9531 127.477C80.5625 128.201 80.8672 129.237 80.8672 130.586V131.188H75.1406C75.1615 132.021 75.4036 132.695 75.8672 133.211C76.3359 133.721 76.9297 133.977 77.6484 133.977C78.1589 133.977 78.5911 133.872 78.9453 133.664C79.2995 133.456 79.6094 133.18 79.875 132.836L80.7578 133.523C80.0495 134.612 78.987 135.156 77.5703 135.156ZM77.3906 127.578C76.8073 127.578 76.3177 127.792 75.9219 128.219C75.526 128.641 75.2812 129.234 75.1875 130H79.4219V129.891C79.3802 129.156 79.1823 128.589 78.8281 128.188C78.474 127.781 77.9948 127.578 77.3906 127.578ZM87.4688 132.758C87.4688 132.367 87.3203 132.065 87.0234 131.852C86.7318 131.633 86.2188 131.445 85.4844 131.289C84.7552 131.133 84.1745 130.945 83.7422 130.727C83.3151 130.508 82.9974 130.247 82.7891 129.945C82.5859 129.643 82.4844 129.284 82.4844 128.867C82.4844 128.174 82.776 127.589 83.3594 127.109C83.9479 126.63 84.6979 126.391 85.6094 126.391C86.5677 126.391 87.3438 126.638 87.9375 127.133C88.5365 127.628 88.8359 128.26 88.8359 129.031H87.3828C87.3828 128.635 87.2135 128.294 86.875 128.008C86.5417 127.721 86.1198 127.578 85.6094 127.578C85.0833 127.578 84.6719 127.693 84.375 127.922C84.0781 128.151 83.9297 128.451 83.9297 128.82C83.9297 129.169 84.0677 129.432 84.3438 129.609C84.6198 129.786 85.1172 129.956 85.8359 130.117C86.5599 130.279 87.1458 130.471 87.5938 130.695C88.0417 130.919 88.3724 131.19 88.5859 131.508C88.8047 131.82 88.9141 132.203 88.9141 132.656C88.9141 133.411 88.612 134.018 88.0078 134.477C87.4036 134.93 86.6198 135.156 85.6562 135.156C84.9792 135.156 84.3802 135.036 83.8594 134.797C83.3385 134.557 82.9297 134.224 82.6328 133.797C82.3411 133.365 82.1953 132.898 82.1953 132.398H83.6406C83.6667 132.883 83.8594 133.268 84.2188 133.555C84.5833 133.836 85.0625 133.977 85.6562 133.977C86.2031 133.977 86.6406 133.867 86.9688 133.648C87.3021 133.424 87.4688 133.128 87.4688 132.758ZM92.3672 135H90.9141V126.547H92.3672V135ZM92.3828 123.008H94.1328L92.0391 125.305H90.875L92.3828 123.008ZM94.3984 130.703C94.3984 129.406 94.7057 128.365 95.3203 127.578C95.9349 126.786 96.7396 126.391 97.7344 126.391C98.724 126.391 99.5078 126.729 100.086 127.406V123H101.531V135H100.203L100.133 134.094C99.5547 134.802 98.75 135.156 97.7188 135.156C96.7396 135.156 95.9401 134.755 95.3203 133.953C94.7057 133.151 94.3984 132.104 94.3984 130.812V130.703ZM95.8438 130.867C95.8438 131.826 96.0417 132.576 96.4375 133.117C96.8333 133.659 97.3802 133.93 98.0781 133.93C98.9948 133.93 99.6641 133.518 100.086 132.695V128.812C99.6536 128.016 98.9896 127.617 98.0938 127.617C97.3854 127.617 96.8333 127.891 96.4375 128.438C96.0417 128.984 95.8438 129.794 95.8438 130.867ZM109 134.164C108.438 134.826 107.612 135.156 106.523 135.156C105.622 135.156 104.935 134.896 104.461 134.375C103.992 133.849 103.755 133.073 103.75 132.047V126.547H105.195V132.008C105.195 133.289 105.716 133.93 106.758 133.93C107.862 133.93 108.596 133.518 108.961 132.695V126.547H110.406V135H109.031L109 134.164ZM112.227 130.695C112.227 129.867 112.388 129.122 112.711 128.461C113.039 127.799 113.492 127.289 114.07 126.93C114.654 126.57 115.318 126.391 116.062 126.391C117.214 126.391 118.143 126.789 118.852 127.586C119.565 128.383 119.922 129.443 119.922 130.766V130.867C119.922 131.69 119.763 132.43 119.445 133.086C119.133 133.737 118.682 134.245 118.094 134.609C117.51 134.974 116.839 135.156 116.078 135.156C114.932 135.156 114.003 134.758 113.289 133.961C112.581 133.164 112.227 132.109 112.227 130.797V130.695ZM113.68 130.867C113.68 131.805 113.896 132.557 114.328 133.125C114.766 133.693 115.349 133.977 116.078 133.977C116.812 133.977 117.396 133.69 117.828 133.117C118.26 132.539 118.477 131.732 118.477 130.695C118.477 129.768 118.255 129.018 117.812 128.445C117.375 127.867 116.792 127.578 116.062 127.578C115.349 127.578 114.773 127.862 114.336 128.43C113.898 128.997 113.68 129.81 113.68 130.867ZM126.656 132.758C126.656 132.367 126.508 132.065 126.211 131.852C125.919 131.633 125.406 131.445 124.672 131.289C123.943 131.133 123.362 130.945 122.93 130.727C122.503 130.508 122.185 130.247 121.977 129.945C121.773 129.643 121.672 129.284 121.672 128.867C121.672 128.174 121.964 127.589 122.547 127.109C123.135 126.63 123.885 126.391 124.797 126.391C125.755 126.391 126.531 126.638 127.125 127.133C127.724 127.628 128.023 128.26 128.023 129.031H126.57C126.57 128.635 126.401 128.294 126.062 128.008C125.729 127.721 125.307 127.578 124.797 127.578C124.271 127.578 123.859 127.693 123.562 127.922C123.266 128.151 123.117 128.451 123.117 128.82C123.117 129.169 123.255 129.432 123.531 129.609C123.807 129.786 124.305 129.956 125.023 130.117C125.747 130.279 126.333 130.471 126.781 130.695C127.229 130.919 127.56 131.19 127.773 131.508C127.992 131.82 128.102 132.203 128.102 132.656C128.102 133.411 127.799 134.018 127.195 134.477C126.591 134.93 125.807 135.156 124.844 135.156C124.167 135.156 123.568 135.036 123.047 134.797C122.526 134.557 122.117 134.224 121.82 133.797C121.529 133.365 121.383 132.898 121.383 132.398H122.828C122.854 132.883 123.047 133.268 123.406 133.555C123.771 133.836 124.25 133.977 124.844 133.977C125.391 133.977 125.828 133.867 126.156 133.648C126.49 133.424 126.656 133.128 126.656 132.758ZM63.9688 149.742H59.0391V153.773H64.7656V155H57.5391V143.625H64.6875V144.859H59.0391V148.516H63.9688V149.742ZM67.9766 155H66.5312V143H67.9766V155ZM73.8047 155.156C72.6589 155.156 71.7266 154.781 71.0078 154.031C70.2891 153.276 69.9297 152.268 69.9297 151.008V150.742C69.9297 149.904 70.0885 149.156 70.4062 148.5C70.7292 147.839 71.1771 147.323 71.75 146.953C72.3281 146.578 72.9531 146.391 73.625 146.391C74.724 146.391 75.5781 146.753 76.1875 147.477C76.7969 148.201 77.1016 149.237 77.1016 150.586V151.188H71.375C71.3958 152.021 71.638 152.695 72.1016 153.211C72.5703 153.721 73.1641 153.977 73.8828 153.977C74.3932 153.977 74.8255 153.872 75.1797 153.664C75.5339 153.456 75.8438 153.18 76.1094 152.836L76.9922 153.523C76.2839 154.612 75.2214 155.156 73.8047 155.156ZM73.625 147.578C73.0417 147.578 72.5521 147.792 72.1562 148.219C71.7604 148.641 71.5156 149.234 71.4219 150H75.6562V149.891C75.6146 149.156 75.4167 148.589 75.0625 148.188C74.7083 147.781 74.2292 147.578 73.625 147.578ZM80.7422 144.5V146.547H82.3203V147.664H80.7422V152.906C80.7422 153.245 80.8125 153.5 80.9531 153.672C81.0938 153.839 81.3333 153.922 81.6719 153.922C81.8385 153.922 82.0677 153.891 82.3594 153.828V155C81.9792 155.104 81.6094 155.156 81.25 155.156C80.6042 155.156 80.1172 154.961 79.7891 154.57C79.4609 154.18 79.2969 153.625 79.2969 152.906V147.664H77.7578V146.547H79.2969V144.5H80.7422ZM88.1016 147.844C87.8828 147.807 87.6458 147.789 87.3906 147.789C86.4427 147.789 85.7995 148.193 85.4609 149V155H84.0156V146.547H85.4219L85.4453 147.523C85.9193 146.768 86.5911 146.391 87.4609 146.391C87.7422 146.391 87.9557 146.427 88.1016 146.5V147.844ZM88.8984 150.695C88.8984 149.867 89.0599 149.122 89.3828 148.461C89.7109 147.799 90.1641 147.289 90.7422 146.93C91.3255 146.57 91.9896 146.391 92.7344 146.391C93.8854 146.391 94.8151 146.789 95.5234 147.586C96.237 148.383 96.5938 149.443 96.5938 150.766V150.867C96.5938 151.69 96.4349 152.43 96.1172 153.086C95.8047 153.737 95.3542 154.245 94.7656 154.609C94.1823 154.974 93.5104 155.156 92.75 155.156C91.6042 155.156 90.6745 154.758 89.9609 153.961C89.2526 153.164 88.8984 152.109 88.8984 150.797V150.695ZM90.3516 150.867C90.3516 151.805 90.5677 152.557 91 153.125C91.4375 153.693 92.0208 153.977 92.75 153.977C93.4844 153.977 94.0677 153.69 94.5 153.117C94.9323 152.539 95.1484 151.732 95.1484 150.695C95.1484 149.768 94.9271 149.018 94.4844 148.445C94.0469 147.867 93.4635 147.578 92.7344 147.578C92.0208 147.578 91.4453 147.862 91.0078 148.43C90.5703 148.997 90.3516 149.81 90.3516 150.867ZM95.0469 145.141V145.219H93.8516L92.6797 143.891L91.5156 145.219H90.3203V145.125L92.2422 143H93.1172L95.0469 145.141ZM99.7734 146.547L99.8203 147.609C100.466 146.797 101.31 146.391 102.352 146.391C104.138 146.391 105.039 147.398 105.055 149.414V155H103.609V149.406C103.604 148.797 103.464 148.346 103.188 148.055C102.917 147.763 102.492 147.617 101.914 147.617C101.445 147.617 101.034 147.742 100.68 147.992C100.326 148.242 100.049 148.57 99.8516 148.977V155H98.4062V146.547H99.7734ZM108.805 155H107.359V146.547H108.805V155ZM107.242 144.305C107.242 144.07 107.312 143.872 107.453 143.711C107.599 143.549 107.812 143.469 108.094 143.469C108.375 143.469 108.589 143.549 108.734 143.711C108.88 143.872 108.953 144.07 108.953 144.305C108.953 144.539 108.88 144.734 108.734 144.891C108.589 145.047 108.375 145.125 108.094 145.125C107.812 145.125 107.599 145.047 107.453 144.891C107.312 144.734 107.242 144.539 107.242 144.305ZM114.516 153.977C115.031 153.977 115.482 153.82 115.867 153.508C116.253 153.195 116.466 152.805 116.508 152.336H117.875C117.849 152.82 117.682 153.281 117.375 153.719C117.068 154.156 116.656 154.505 116.141 154.766C115.63 155.026 115.089 155.156 114.516 155.156C113.365 155.156 112.448 154.773 111.766 154.008C111.089 153.237 110.75 152.185 110.75 150.852V150.609C110.75 149.786 110.901 149.055 111.203 148.414C111.505 147.773 111.938 147.276 112.5 146.922C113.068 146.568 113.737 146.391 114.508 146.391C115.456 146.391 116.242 146.674 116.867 147.242C117.497 147.81 117.833 148.547 117.875 149.453H116.508C116.466 148.906 116.258 148.458 115.883 148.109C115.513 147.755 115.055 147.578 114.508 147.578C113.773 147.578 113.203 147.844 112.797 148.375C112.396 148.901 112.195 149.664 112.195 150.664V150.938C112.195 151.911 112.396 152.661 112.797 153.188C113.198 153.714 113.771 153.977 114.516 153.977ZM119.117 150.695C119.117 149.867 119.279 149.122 119.602 148.461C119.93 147.799 120.383 147.289 120.961 146.93C121.544 146.57 122.208 146.391 122.953 146.391C124.104 146.391 125.034 146.789 125.742 147.586C126.456 148.383 126.812 149.443 126.812 150.766V150.867C126.812 151.69 126.654 152.43 126.336 153.086C126.023 153.737 125.573 154.245 124.984 154.609C124.401 154.974 123.729 155.156 122.969 155.156C121.823 155.156 120.893 154.758 120.18 153.961C119.471 153.164 119.117 152.109 119.117 150.797V150.695ZM120.57 150.867C120.57 151.805 120.786 152.557 121.219 153.125C121.656 153.693 122.24 153.977 122.969 153.977C123.703 153.977 124.286 153.69 124.719 153.117C125.151 152.539 125.367 151.732 125.367 150.695C125.367 149.768 125.146 149.018 124.703 148.445C124.266 147.867 123.682 147.578 122.953 147.578C122.24 147.578 121.664 147.862 121.227 148.43C120.789 148.997 120.57 149.81 120.57 150.867ZM133.547 152.758C133.547 152.367 133.398 152.065 133.102 151.852C132.81 151.633 132.297 151.445 131.562 151.289C130.833 151.133 130.253 150.945 129.82 150.727C129.393 150.508 129.076 150.247 128.867 149.945C128.664 149.643 128.562 149.284 128.562 148.867C128.562 148.174 128.854 147.589 129.438 147.109C130.026 146.63 130.776 146.391 131.688 146.391C132.646 146.391 133.422 146.638 134.016 147.133C134.615 147.628 134.914 148.26 134.914 149.031H133.461C133.461 148.635 133.292 148.294 132.953 148.008C132.62 147.721 132.198 147.578 131.688 147.578C131.161 147.578 130.75 147.693 130.453 147.922C130.156 148.151 130.008 148.451 130.008 148.82C130.008 149.169 130.146 149.432 130.422 149.609C130.698 149.786 131.195 149.956 131.914 150.117C132.638 150.279 133.224 150.471 133.672 150.695C134.12 150.919 134.451 151.19 134.664 151.508C134.883 151.82 134.992 152.203 134.992 152.656C134.992 153.411 134.69 154.018 134.086 154.477C133.482 154.93 132.698 155.156 131.734 155.156C131.057 155.156 130.458 155.036 129.938 154.797C129.417 154.557 129.008 154.224 128.711 153.797C128.419 153.365 128.273 152.898 128.273 152.398H129.719C129.745 152.883 129.938 153.268 130.297 153.555C130.661 153.836 131.141 153.977 131.734 153.977C132.281 153.977 132.719 153.867 133.047 153.648C133.38 153.424 133.547 153.128 133.547 152.758Z" fill="#322153"/>
<g clip-path="url(#clip0)">
<path d="M110 59H82C80.895 59 80 57.9558 80 56.6667V40.3333C80 39.0442 80.895 38 82 38H110C111.105 38 112 39.0442 112 40.3333V56.6667C112 57.9558 111.105 59 110 59Z" fill="#34CB79"/>
<path d="M80.5163 33.5H111.484C114.054 33.5 116.145 35.5917 116.145 38.1613V59.5953C116.145 61.1856 115.769 62.7814 115.057 64.2043L115.057 64.2047C114.419 65.4838 114.081 66.9125 114.081 68.3402V91.8387C114.081 94.4083 111.989 96.5 109.419 96.5H82.5808C80.0112 96.5 77.9195 94.4083 77.9195 91.8387V68.3402C77.9195 66.9136 77.5813 65.4838 76.9429 64.2055L76.9429 64.2055C76.2311 62.7804 75.855 61.1855 75.855 59.5953V38.1613C75.855 35.5917 77.9466 33.5 80.5163 33.5ZM114.104 63.7301L114.104 63.7299C114.743 62.4517 115.081 61.0229 115.081 59.5953V38.1613C115.081 36.178 113.467 34.5645 111.484 34.5645H80.5163C78.533 34.5645 76.9195 36.178 76.9195 38.1613V59.5953C76.9195 61.0229 77.2577 62.4517 77.8961 63.7299L77.8961 63.7301C78.6079 65.1541 78.984 66.7499 78.984 68.3402V91.8387C78.984 93.822 80.5975 95.4355 82.5808 95.4355H109.419C111.403 95.4355 113.016 93.822 113.016 91.8387V68.3402C113.016 66.7499 113.392 65.1541 114.104 63.7301Z" fill="#322153" stroke="#322153"/>
<path d="M83.1129 90.8065V91.3065H83.6129H87.7439H88.2444L88.2439 90.806L88.2419 88.7415L88.2414 88.242H87.7419H83.6129H83.1129V88.742V90.8065ZM83.6129 87.1775H87.7419C88.6044 87.1775 89.3064 87.8795 89.3064 88.742V90.8065C89.3064 91.669 88.6044 92.371 87.7419 92.371H83.6129C82.7504 92.371 82.0483 91.669 82.0483 90.8065V88.742C82.0483 87.8795 82.7504 87.1775 83.6129 87.1775Z" fill="#322153" stroke="#322153"/>
<path d="M83.1129 82.5485V83.0485H83.6129H87.7439H88.2444L88.2439 82.548L88.2419 80.4835L88.2414 79.984H87.7419H83.6129H83.1129V80.484V82.5485ZM83.6129 78.9194H87.7419C88.6044 78.9194 89.3064 79.6215 89.3064 80.484V82.5485C89.3064 83.4109 88.6044 84.113 87.7419 84.113H83.6129C82.7504 84.113 82.0483 83.4109 82.0483 82.5485V80.484C82.0483 79.6215 82.7504 78.9194 83.6129 78.9194Z" fill="#322153" stroke="#322153"/>
<path d="M83.1129 74.2904V74.7904H83.6129H87.7439H88.2444L88.2439 74.2899L88.2419 72.2254L88.2414 71.7259H87.7419H83.6129H83.1129V72.2259V74.2904ZM83.6129 70.6614H87.7419C88.6044 70.6614 89.3064 71.3634 89.3064 72.2259V74.2904C89.3064 75.1529 88.6044 75.8549 87.7419 75.8549H83.6129C82.7504 75.8549 82.0483 75.1529 82.0483 74.2904V72.2259C82.0483 71.3634 82.7504 70.6614 83.6129 70.6614Z" fill="#322153" stroke="#322153"/>
<path d="M93.4356 90.8065V91.3065H93.9356H98.0667H98.5671L98.5667 90.806L98.5646 88.7415L98.5642 88.242H98.0646H93.9356H93.4356V88.742V90.8065ZM93.9356 87.1775H98.0646C98.9271 87.1775 99.6292 87.8795 99.6292 88.742V90.8065C99.6292 91.669 98.9271 92.371 98.0646 92.371H93.9356C93.0731 92.371 92.3711 91.669 92.3711 90.8065V88.742C92.3711 87.8795 93.0731 87.1775 93.9356 87.1775Z" fill="#322153" stroke="#322153"/>
<path d="M93.4356 82.5485V83.0485H93.9356H98.0667H98.5671L98.5667 82.548L98.5646 80.4835L98.5642 79.984H98.0646H93.9356H93.4356V80.484V82.5485ZM93.9356 78.9194H98.0646C98.9271 78.9194 99.6292 79.6215 99.6292 80.484V82.5485C99.6292 83.4109 98.9271 84.113 98.0646 84.113H93.9356C93.0731 84.113 92.3711 83.4109 92.3711 82.5485V80.484C92.3711 79.6215 93.0731 78.9194 93.9356 78.9194Z" fill="#322153" stroke="#322153"/>
<path d="M93.4356 74.2904V74.7904H93.9356H98.0667H98.5671L98.5667 74.2899L98.5646 72.2254L98.5642 71.7259H98.0646H93.9356H93.4356V72.2259V74.2904ZM93.9356 70.6614H98.0646C98.9271 70.6614 99.6292 71.3634 99.6292 72.2259V74.2904C99.6292 75.1529 98.9271 75.8549 98.0646 75.8549H93.9356C93.0731 75.8549 92.3711 75.1529 92.3711 74.2904V72.2259C92.3711 71.3634 93.0731 70.6614 93.9356 70.6614Z" fill="#322153" stroke="#322153"/>
<path d="M92.9034 62.4033H99.097C100.528 62.4033 101.694 63.5691 101.694 65.0001C101.694 66.4311 100.528 67.5969 99.097 67.5969H92.9034C91.4724 67.5969 90.3066 66.4311 90.3066 65.0001C90.3066 63.5691 91.4724 62.4033 92.9034 62.4033ZM92.9034 66.5324H99.097C99.943 66.5324 100.629 65.8445 100.629 65.0001C100.629 64.1557 99.943 63.4678 99.097 63.4678H92.9034C92.0574 63.4678 91.3712 64.1557 91.3712 65.0001C91.3712 65.8445 92.0574 66.5324 92.9034 66.5324Z" fill="#322153" stroke="#322153"/>
<path d="M103.758 90.8065V91.3065H104.258H108.389H108.889L108.889 90.806L108.887 88.7415L108.886 88.242H108.387H104.258H103.758V88.742V90.8065ZM104.258 87.1775H108.387C109.249 87.1775 109.951 87.8795 109.951 88.742V90.8065C109.951 91.669 109.249 92.371 108.387 92.371H104.258C103.395 92.371 102.693 91.669 102.693 90.8065V88.742C102.693 87.8795 103.395 87.1775 104.258 87.1775Z" fill="#322153" stroke="#322153"/>
<path d="M103.758 82.5485V83.0485H104.258H108.389H108.889L108.889 82.548L108.887 80.4835L108.886 79.984H108.387H104.258H103.758V80.484V82.5485ZM104.258 78.9194H108.387C109.249 78.9194 109.951 79.6215 109.951 80.484V82.5485C109.951 83.4109 109.249 84.113 108.387 84.113H104.258C103.395 84.113 102.693 83.4109 102.693 82.5485V80.484C102.693 79.6215 103.395 78.9194 104.258 78.9194Z" fill="#322153" stroke="#322153"/>
<path d="M103.758 74.2904V74.7904H104.258H108.389H108.889L108.889 74.2899L108.887 72.2254L108.886 71.7259H108.387H104.258H103.758V72.2259V74.2904ZM104.258 70.6614H108.387C109.249 70.6614 109.951 71.3634 109.951 72.2259V74.2904C109.951 75.1529 109.249 75.8549 108.387 75.8549H104.258C103.395 75.8549 102.693 75.1529 102.693 74.2904V72.2259C102.693 71.3634 103.395 70.6614 104.258 70.6614Z" fill="#322153" stroke="#322153"/>
<path d="M106.323 63.4678H105.823V63.9678V66.0324V66.5324H106.323H108.387H108.887V66.0324V63.9678V63.4678H108.387H106.323ZM109.952 62.4033V67.5969H104.758V62.4033H109.952Z" fill="#322153" stroke="#322153"/>
<path d="M85.6774 66.5324H86.1774V66.0324V63.9678V63.4678H85.6774H83.6129H83.1129V63.9678V66.0324V66.5324H83.6129H85.6774ZM82.0483 62.4033H87.2419V67.5969H82.0483V62.4033Z" fill="#322153" stroke="#322153"/>
</g>
<defs>
<clipPath id="clip0">
<rect width="64" height="64" fill="white" transform="translate(64 33)"/>
</clipPath>
</defs>
</svg>
