<svg width="192" height="184" viewBox="0 0 192 184" fill="none" xmlns="http://www.w3.org/2000/svg">
<rect width="192" height="184" rx="8" fill="#E1FAEC"/>
<path d="M69.1016 130.398H66.4297V135H64.9219V123.625H68.6875C69.9688 123.625 70.9531 123.917 71.6406 124.5C72.3333 125.083 72.6797 125.932 72.6797 127.047C72.6797 127.755 72.487 128.372 72.1016 128.898C71.7214 129.424 71.1901 129.818 70.5078 130.078L73.1797 134.906V135H71.5703L69.1016 130.398ZM66.4297 129.172H68.7344C69.4792 129.172 70.0703 128.979 70.5078 128.594C70.9505 128.208 71.1719 127.693 71.1719 127.047C71.1719 126.344 70.9609 125.805 70.5391 125.43C70.1224 125.055 69.5182 124.865 68.7266 124.859H66.4297V129.172ZM78.0703 135.156C76.9245 135.156 75.9922 134.781 75.2734 134.031C74.5547 133.276 74.1953 132.268 74.1953 131.008V130.742C74.1953 129.904 74.3542 129.156 74.6719 128.5C74.9948 127.839 75.4427 127.323 76.0156 126.953C76.5938 126.578 77.2188 126.391 77.8906 126.391C78.9896 126.391 79.8438 126.753 80.4531 127.477C81.0625 128.201 81.3672 129.237 81.3672 130.586V131.188H75.6406C75.6615 132.021 75.9036 132.695 76.3672 133.211C76.8359 133.721 77.4297 133.977 78.1484 133.977C78.6589 133.977 79.0911 133.872 79.4453 133.664C79.7995 133.456 80.1094 133.18 80.375 132.836L81.2578 133.523C80.5495 134.612 79.487 135.156 78.0703 135.156ZM77.8906 127.578C77.3073 127.578 76.8177 127.792 76.4219 128.219C76.026 128.641 75.7812 129.234 75.6875 130H79.9219V129.891C79.8802 129.156 79.6823 128.589 79.3281 128.188C78.974 127.781 78.4948 127.578 77.8906 127.578ZM87.9688 132.758C87.9688 132.367 87.8203 132.065 87.5234 131.852C87.2318 131.633 86.7188 131.445 85.9844 131.289C85.2552 131.133 84.6745 130.945 84.2422 130.727C83.8151 130.508 83.4974 130.247 83.2891 129.945C83.0859 129.643 82.9844 129.284 82.9844 128.867C82.9844 128.174 83.276 127.589 83.8594 127.109C84.4479 126.63 85.1979 126.391 86.1094 126.391C87.0677 126.391 87.8438 126.638 88.4375 127.133C89.0365 127.628 89.3359 128.26 89.3359 129.031H87.8828C87.8828 128.635 87.7135 128.294 87.375 128.008C87.0417 127.721 86.6198 127.578 86.1094 127.578C85.5833 127.578 85.1719 127.693 84.875 127.922C84.5781 128.151 84.4297 128.451 84.4297 128.82C84.4297 129.169 84.5677 129.432 84.8438 129.609C85.1198 129.786 85.6172 129.956 86.3359 130.117C87.0599 130.279 87.6458 130.471 88.0938 130.695C88.5417 130.919 88.8724 131.19 89.0859 131.508C89.3047 131.82 89.4141 132.203 89.4141 132.656C89.4141 133.411 89.112 134.018 88.5078 134.477C87.9036 134.93 87.1198 135.156 86.1562 135.156C85.4792 135.156 84.8802 135.036 84.3594 134.797C83.8385 134.557 83.4297 134.224 83.1328 133.797C82.8411 133.365 82.6953 132.898 82.6953 132.398H84.1406C84.1667 132.883 84.3594 133.268 84.7188 133.555C85.0833 133.836 85.5625 133.977 86.1562 133.977C86.7031 133.977 87.1406 133.867 87.4688 133.648C87.8021 133.424 87.9688 133.128 87.9688 132.758ZM92.8672 135H91.4141V126.547H92.8672V135ZM92.8828 123.008H94.6328L92.5391 125.305H91.375L92.8828 123.008ZM94.8984 130.703C94.8984 129.406 95.2057 128.365 95.8203 127.578C96.4349 126.786 97.2396 126.391 98.2344 126.391C99.224 126.391 100.008 126.729 100.586 127.406V123H102.031V135H100.703L100.633 134.094C100.055 134.802 99.25 135.156 98.2188 135.156C97.2396 135.156 96.4401 134.755 95.8203 133.953C95.2057 133.151 94.8984 132.104 94.8984 130.812V130.703ZM96.3438 130.867C96.3438 131.826 96.5417 132.576 96.9375 133.117C97.3333 133.659 97.8802 133.93 98.5781 133.93C99.4948 133.93 100.164 133.518 100.586 132.695V128.812C100.154 128.016 99.4896 127.617 98.5938 127.617C97.8854 127.617 97.3333 127.891 96.9375 128.438C96.5417 128.984 96.3438 129.794 96.3438 130.867ZM109.5 134.164C108.938 134.826 108.112 135.156 107.023 135.156C106.122 135.156 105.435 134.896 104.961 134.375C104.492 133.849 104.255 133.073 104.25 132.047V126.547H105.695V132.008C105.695 133.289 106.216 133.93 107.258 133.93C108.362 133.93 109.096 133.518 109.461 132.695V126.547H110.906V135H109.531L109.5 134.164ZM112.727 130.695C112.727 129.867 112.888 129.122 113.211 128.461C113.539 127.799 113.992 127.289 114.57 126.93C115.154 126.57 115.818 126.391 116.562 126.391C117.714 126.391 118.643 126.789 119.352 127.586C120.065 128.383 120.422 129.443 120.422 130.766V130.867C120.422 131.69 120.263 132.43 119.945 133.086C119.633 133.737 119.182 134.245 118.594 134.609C118.01 134.974 117.339 135.156 116.578 135.156C115.432 135.156 114.503 134.758 113.789 133.961C113.081 133.164 112.727 132.109 112.727 130.797V130.695ZM114.18 130.867C114.18 131.805 114.396 132.557 114.828 133.125C115.266 133.693 115.849 133.977 116.578 133.977C117.312 133.977 117.896 133.69 118.328 133.117C118.76 132.539 118.977 131.732 118.977 130.695C118.977 129.768 118.755 129.018 118.312 128.445C117.875 127.867 117.292 127.578 116.562 127.578C115.849 127.578 115.273 127.862 114.836 128.43C114.398 128.997 114.18 129.81 114.18 130.867ZM127.156 132.758C127.156 132.367 127.008 132.065 126.711 131.852C126.419 131.633 125.906 131.445 125.172 131.289C124.443 131.133 123.862 130.945 123.43 130.727C123.003 130.508 122.685 130.247 122.477 129.945C122.273 129.643 122.172 129.284 122.172 128.867C122.172 128.174 122.464 127.589 123.047 127.109C123.635 126.63 124.385 126.391 125.297 126.391C126.255 126.391 127.031 126.638 127.625 127.133C128.224 127.628 128.523 128.26 128.523 129.031H127.07C127.07 128.635 126.901 128.294 126.562 128.008C126.229 127.721 125.807 127.578 125.297 127.578C124.771 127.578 124.359 127.693 124.062 127.922C123.766 128.151 123.617 128.451 123.617 128.82C123.617 129.169 123.755 129.432 124.031 129.609C124.307 129.786 124.805 129.956 125.523 130.117C126.247 130.279 126.833 130.471 127.281 130.695C127.729 130.919 128.06 131.19 128.273 131.508C128.492 131.82 128.602 132.203 128.602 132.656C128.602 133.411 128.299 134.018 127.695 134.477C127.091 134.93 126.307 135.156 125.344 135.156C124.667 135.156 124.068 135.036 123.547 134.797C123.026 134.557 122.617 134.224 122.32 133.797C122.029 133.365 121.883 132.898 121.883 132.398H123.328C123.354 132.883 123.547 133.268 123.906 133.555C124.271 133.836 124.75 133.977 125.344 133.977C125.891 133.977 126.328 133.867 126.656 133.648C126.99 133.424 127.156 133.128 127.156 132.758ZM70.3594 149.68C70.3594 150.794 70.1719 151.768 69.7969 152.602C69.4219 153.43 68.8906 154.062 68.2031 154.5C67.5156 154.938 66.7135 155.156 65.7969 155.156C64.901 155.156 64.1068 154.938 63.4141 154.5C62.7214 154.057 62.1823 153.43 61.7969 152.617C61.4167 151.799 61.2214 150.854 61.2109 149.781V148.961C61.2109 147.867 61.401 146.901 61.7812 146.062C62.1615 145.224 62.6979 144.583 63.3906 144.141C64.0885 143.693 64.8854 143.469 65.7812 143.469C66.6927 143.469 67.4948 143.69 68.1875 144.133C68.8854 144.57 69.4219 145.208 69.7969 146.047C70.1719 146.88 70.3594 147.852 70.3594 148.961V149.68ZM68.8672 148.945C68.8672 147.596 68.5964 146.562 68.0547 145.844C67.513 145.12 66.7552 144.758 65.7812 144.758C64.8333 144.758 64.0859 145.12 63.5391 145.844C62.9974 146.562 62.7188 147.562 62.7031 148.844V149.68C62.7031 150.987 62.9766 152.016 63.5234 152.766C64.0755 153.51 64.8333 153.883 65.7969 153.883C66.7656 153.883 67.5156 153.531 68.0469 152.828C68.5781 152.12 68.8516 151.107 68.8672 149.789V148.945ZM76.4688 147.844C76.25 147.807 76.013 147.789 75.7578 147.789C74.8099 147.789 74.1667 148.193 73.8281 149V155H72.3828V146.547H73.7891L73.8125 147.523C74.2865 146.768 74.9583 146.391 75.8281 146.391C76.1094 146.391 76.3229 146.427 76.4688 146.5V147.844ZM77.3047 150.703C77.3047 149.385 77.6094 148.339 78.2188 147.562C78.8281 146.781 79.6354 146.391 80.6406 146.391C81.6719 146.391 82.4766 146.755 83.0547 147.484L83.125 146.547H84.4453V154.797C84.4453 155.891 84.1198 156.753 83.4688 157.383C82.8229 158.013 81.9531 158.328 80.8594 158.328C80.25 158.328 79.6536 158.198 79.0703 157.938C78.487 157.677 78.0417 157.32 77.7344 156.867L78.4844 156C79.1042 156.766 79.862 157.148 80.7578 157.148C81.4609 157.148 82.0078 156.951 82.3984 156.555C82.7943 156.159 82.9922 155.602 82.9922 154.883V154.156C82.4141 154.823 81.625 155.156 80.625 155.156C79.6354 155.156 78.8333 154.758 78.2188 153.961C77.6094 153.164 77.3047 152.078 77.3047 150.703ZM78.7578 150.867C78.7578 151.82 78.9531 152.57 79.3438 153.117C79.7344 153.659 80.2812 153.93 80.9844 153.93C81.8958 153.93 82.5651 153.516 82.9922 152.688V148.828C82.5495 148.021 81.8854 147.617 81 147.617C80.2969 147.617 79.7474 147.891 79.3516 148.438C78.9557 148.984 78.7578 149.794 78.7578 150.867ZM91.8516 155C91.7682 154.833 91.7005 154.536 91.6484 154.109C90.9766 154.807 90.1745 155.156 89.2422 155.156C88.4089 155.156 87.724 154.922 87.1875 154.453C86.6562 153.979 86.3906 153.38 86.3906 152.656C86.3906 151.776 86.724 151.094 87.3906 150.609C88.0625 150.12 89.0052 149.875 90.2188 149.875H91.625V149.211C91.625 148.706 91.474 148.305 91.1719 148.008C90.8698 147.706 90.4245 147.555 89.8359 147.555C89.3203 147.555 88.888 147.685 88.5391 147.945C88.1901 148.206 88.0156 148.521 88.0156 148.891H86.5625C86.5625 148.469 86.7109 148.062 87.0078 147.672C87.3099 147.276 87.7161 146.964 88.2266 146.734C88.7422 146.505 89.3073 146.391 89.9219 146.391C90.8958 146.391 91.6589 146.635 92.2109 147.125C92.763 147.609 93.0495 148.279 93.0703 149.133V153.023C93.0703 153.799 93.1693 154.417 93.3672 154.875V155H91.8516ZM89.4531 153.898C89.9062 153.898 90.3359 153.781 90.7422 153.547C91.1484 153.312 91.4427 153.008 91.625 152.633V150.898H90.4922C88.7214 150.898 87.8359 151.417 87.8359 152.453C87.8359 152.906 87.987 153.26 88.2891 153.516C88.5911 153.771 88.9792 153.898 89.4531 153.898ZM92.4453 145.141V145.219H91.25L90.0781 143.891L88.9141 145.219H87.7188V145.125L89.6406 143H90.5156L92.4453 145.141ZM96.7031 146.547L96.75 147.609C97.3958 146.797 98.2396 146.391 99.2812 146.391C101.068 146.391 101.969 147.398 101.984 149.414V155H100.539V149.406C100.534 148.797 100.393 148.346 100.117 148.055C99.8464 147.763 99.4219 147.617 98.8438 147.617C98.375 147.617 97.9635 147.742 97.6094 147.992C97.2552 148.242 96.9792 148.57 96.7812 148.977V155H95.3359V146.547H96.7031ZM105.734 155H104.289V146.547H105.734V155ZM104.172 144.305C104.172 144.07 104.242 143.872 104.383 143.711C104.529 143.549 104.742 143.469 105.023 143.469C105.305 143.469 105.518 143.549 105.664 143.711C105.81 143.872 105.883 144.07 105.883 144.305C105.883 144.539 105.81 144.734 105.664 144.891C105.518 145.047 105.305 145.125 105.023 145.125C104.742 145.125 104.529 145.047 104.383 144.891C104.242 144.734 104.172 144.539 104.172 144.305ZM111.445 153.977C111.961 153.977 112.411 153.82 112.797 153.508C113.182 153.195 113.396 152.805 113.438 152.336H114.805C114.779 152.82 114.612 153.281 114.305 153.719C113.997 154.156 113.586 154.505 113.07 154.766C112.56 155.026 112.018 155.156 111.445 155.156C110.294 155.156 109.378 154.773 108.695 154.008C108.018 153.237 107.68 152.185 107.68 150.852V150.609C107.68 149.786 107.831 149.055 108.133 148.414C108.435 147.773 108.867 147.276 109.43 146.922C109.997 146.568 110.667 146.391 111.438 146.391C112.385 146.391 113.172 146.674 113.797 147.242C114.427 147.81 114.763 148.547 114.805 149.453H113.438C113.396 148.906 113.188 148.458 112.812 148.109C112.443 147.755 111.984 147.578 111.438 147.578C110.703 147.578 110.133 147.844 109.727 148.375C109.326 148.901 109.125 149.664 109.125 150.664V150.938C109.125 151.911 109.326 152.661 109.727 153.188C110.128 153.714 110.701 153.977 111.445 153.977ZM116.047 150.695C116.047 149.867 116.208 149.122 116.531 148.461C116.859 147.799 117.312 147.289 117.891 146.93C118.474 146.57 119.138 146.391 119.883 146.391C121.034 146.391 121.964 146.789 122.672 147.586C123.385 148.383 123.742 149.443 123.742 150.766V150.867C123.742 151.69 123.583 152.43 123.266 153.086C122.953 153.737 122.503 154.245 121.914 154.609C121.331 154.974 120.659 155.156 119.898 155.156C118.753 155.156 117.823 154.758 117.109 153.961C116.401 153.164 116.047 152.109 116.047 150.797V150.695ZM117.5 150.867C117.5 151.805 117.716 152.557 118.148 153.125C118.586 153.693 119.169 153.977 119.898 153.977C120.633 153.977 121.216 153.69 121.648 153.117C122.081 152.539 122.297 151.732 122.297 150.695C122.297 149.768 122.076 149.018 121.633 148.445C121.195 147.867 120.612 147.578 119.883 147.578C119.169 147.578 118.594 147.862 118.156 148.43C117.719 148.997 117.5 149.81 117.5 150.867ZM130.477 152.758C130.477 152.367 130.328 152.065 130.031 151.852C129.74 151.633 129.227 151.445 128.492 151.289C127.763 151.133 127.182 150.945 126.75 150.727C126.323 150.508 126.005 150.247 125.797 149.945C125.594 149.643 125.492 149.284 125.492 148.867C125.492 148.174 125.784 147.589 126.367 147.109C126.956 146.63 127.706 146.391 128.617 146.391C129.576 146.391 130.352 146.638 130.945 147.133C131.544 147.628 131.844 148.26 131.844 149.031H130.391C130.391 148.635 130.221 148.294 129.883 148.008C129.549 147.721 129.128 147.578 128.617 147.578C128.091 147.578 127.68 147.693 127.383 147.922C127.086 148.151 126.938 148.451 126.938 148.82C126.938 149.169 127.076 149.432 127.352 149.609C127.628 149.786 128.125 149.956 128.844 150.117C129.568 150.279 130.154 150.471 130.602 150.695C131.049 150.919 131.38 151.19 131.594 151.508C131.812 151.82 131.922 152.203 131.922 152.656C131.922 153.411 131.62 154.018 131.016 154.477C130.411 154.93 129.628 155.156 128.664 155.156C127.987 155.156 127.388 155.036 126.867 154.797C126.346 154.557 125.938 154.224 125.641 153.797C125.349 153.365 125.203 152.898 125.203 152.398H126.648C126.674 152.883 126.867 153.268 127.227 153.555C127.591 153.836 128.07 153.977 128.664 153.977C129.211 153.977 129.648 153.867 129.977 153.648C130.31 153.424 130.477 153.128 130.477 152.758Z" fill="#322153"/>
<path d="M75 76V59H86C85.7373 59.1641 85.4629 59.3041 85.1885 59.4333C83.1246 60.4166 81.705 62.3718 81.2518 64.5727L79.7721 71.8788L79.7838 72.0897C77.6843 72.6048 75.9187 74.0329 75.0117 76H75Z" fill="#34CB79"/>
<path d="M107.909 34.5625L112.515 34L120 48.0625V50.3125L118.273 52H102.152L101 49.75L101.576 45.8125L107.909 34.5625Z" fill="#34CB79"/>
<mask id="path-5-inside-1" fill="white">
<path fill-rule="evenodd" clip-rule="evenodd" d="M116.667 81.4727C121.098 81.4727 124.704 85.0125 124.704 89.3636V92.7455V95H67.2965L67.2964 92.7455V89.3636C67.2964 86.1981 69.2092 83.4691 71.9557 82.2119L73.9083 75.8226C73.9631 75.6461 74.0345 75.4798 74.1061 75.3131C74.1328 75.2511 74.1594 75.189 74.1853 75.1263V57.205C74.1853 55.0561 75.4013 53.1241 77.3589 52.1636L78.7779 51.4668V48.7818H76.4816V45.4C76.4816 43.5357 78.0272 42.0182 79.926 42.0182H86.8149C88.7137 42.0182 90.2593 43.5357 90.2593 45.4V48.7818H87.9631V51.4668L89.3831 52.1636C90.45 52.6865 91.2948 53.5254 91.8532 54.5442C92.2619 54.471 92.6818 54.4182 93.1275 54.4182C94.2156 54.4182 95.1849 54.6626 96.0713 55.1624C96.7558 54.8453 97.8636 54.4182 98.8727 54.4182C101.385 54.4182 103.295 55.7226 104.981 56.8742L104.983 56.8758C105.601 57.2975 106.197 57.6806 106.801 58.0185L109.778 56.0695V53.2909H105.456C102.774 53.2909 100.593 51.1492 100.593 48.516C100.593 47.7784 100.77 47.0403 101.106 46.3809L106.576 35.6398C107.405 34.0111 109.071 33 110.926 33C112.781 33 114.447 34.0111 115.276 35.6387L120.746 46.3798C121.082 47.0403 121.259 47.7784 121.259 48.516C121.259 51.1492 119.078 53.2909 116.396 53.2909H112.074V56.0695L118.451 60.245L117.177 62.1208L112.074 58.7798V61.7058L118.451 65.8814L117.177 67.7572L112.074 64.4161V67.3422L118.451 71.5177L117.177 73.3936L112.074 70.0525V72.9785L118.451 77.153L117.177 79.0288L112.074 75.6877V79.3084C113.8 79.5517 115.35 80.3295 116.541 81.4727H116.667ZM103.16 47.3887C102.983 47.7371 102.889 48.1268 102.889 48.516C102.889 49.9058 104.04 51.0364 105.456 51.0364H116.396C117.812 51.0364 118.963 49.9058 118.963 48.516C118.963 48.1268 118.87 47.7371 118.692 47.3887L113.222 36.6477C112.968 36.1495 112.557 35.7797 112.074 35.5408H109.778C109.295 35.7797 108.884 36.1495 108.63 36.6477L103.16 47.3887ZM116.667 88.1224V87.1091C116.667 84.3867 114.691 82.1096 112.074 81.5867V82.6C112.074 85.3213 114.05 87.5995 116.667 88.1224ZM105.185 88.1224C107.802 87.5995 109.778 85.3224 109.778 82.6V81.5867C107.161 82.1096 105.185 84.3867 105.185 87.1091V88.1224ZM79.926 44.2727C79.2936 44.2727 78.7779 44.7791 78.7779 45.4V46.5273H87.9631V45.4C87.9631 44.7791 87.4473 44.2727 86.8149 44.2727H79.926ZM81.0742 52.8605L78.3854 54.1804C77.2104 54.7561 76.4816 55.9153 76.4816 57.205V72.0252C77.1947 71.4434 78.0009 70.9799 78.8844 70.6701L80.2282 64.0754C80.7434 61.5495 82.3899 59.4028 84.6335 58.3356C85.4408 57.9508 86.2066 57.4279 87.0167 56.8747C87.8229 56.3243 88.6829 55.7414 89.6326 55.2807C89.3063 54.8205 88.8769 54.4363 88.3555 54.1804L85.6668 52.8605V48.7818H81.0742V52.8605ZM75.3334 83.7273C72.1682 83.7273 69.5927 86.2559 69.5927 89.3636V92.7455H122.407V89.3636C122.407 86.8185 120.669 84.6878 118.305 83.9898C118.726 84.947 118.963 86.0011 118.963 87.1091V90.4909H117.815C114.89 90.4909 112.333 88.9431 110.926 86.6434C109.519 88.9431 106.962 90.4909 104.037 90.4909H102.889V87.1091C102.889 83.1422 105.889 79.8583 109.778 79.3084V75.6877L104.673 79.0277L103.4 77.1519L109.778 72.9774V70.0514L104.673 73.3914L103.4 71.5155L109.778 67.3411V64.415L104.673 67.755L103.4 65.8792L109.778 61.7047V58.7787L104.673 62.1197L103.4 60.2439L104.689 59.4006C104.345 59.1777 104.003 58.952 103.672 58.7253C102.127 57.669 100.666 56.6727 98.8727 56.6727C98.1932 56.6727 97.1023 57.145 96.5742 57.4417L95.9199 57.811L95.3133 57.3685C94.658 56.8868 93.9841 56.6727 93.1275 56.6727C91.3341 56.6727 89.8736 57.669 88.328 58.7242C87.4809 59.3038 86.6035 59.9026 85.6348 60.3633C84.6338 60.8398 83.8006 61.6249 83.2227 62.5955L83.2223 62.5954L83.2215 62.5976C83.2156 62.6075 83.2098 62.6173 83.204 62.6272C83.206 62.6279 83.208 62.6286 83.2101 62.6292L82.4459 64.752C82.4411 64.7505 82.4363 64.749 82.4314 64.7475L81.3164 70.2226C81.3612 70.2211 81.4049 70.2163 81.4485 70.2115C81.5008 70.2057 81.5529 70.2 81.6068 70.2H93.7038V72.4545H81.6068C79.052 72.4545 76.842 74.0689 76.1082 76.471L74.5687 81.5113C74.8216 81.4876 75.075 81.4727 75.3334 81.4727H86.8149V83.7273H75.3334Z"/>
</mask>
<path fill-rule="evenodd" clip-rule="evenodd" d="M116.667 81.4727C121.098 81.4727 124.704 85.0125 124.704 89.3636V92.7455V95H67.2965L67.2964 92.7455V89.3636C67.2964 86.1981 69.2092 83.4691 71.9557 82.2119L73.9083 75.8226C73.9631 75.6461 74.0345 75.4798 74.1061 75.3131C74.1328 75.2511 74.1594 75.189 74.1853 75.1263V57.205C74.1853 55.0561 75.4013 53.1241 77.3589 52.1636L78.7779 51.4668V48.7818H76.4816V45.4C76.4816 43.5357 78.0272 42.0182 79.926 42.0182H86.8149C88.7137 42.0182 90.2593 43.5357 90.2593 45.4V48.7818H87.9631V51.4668L89.3831 52.1636C90.45 52.6865 91.2948 53.5254 91.8532 54.5442C92.2619 54.471 92.6818 54.4182 93.1275 54.4182C94.2156 54.4182 95.1849 54.6626 96.0713 55.1624C96.7558 54.8453 97.8636 54.4182 98.8727 54.4182C101.385 54.4182 103.295 55.7226 104.981 56.8742L104.983 56.8758C105.601 57.2975 106.197 57.6806 106.801 58.0185L109.778 56.0695V53.2909H105.456C102.774 53.2909 100.593 51.1492 100.593 48.516C100.593 47.7784 100.77 47.0403 101.106 46.3809L106.576 35.6398C107.405 34.0111 109.071 33 110.926 33C112.781 33 114.447 34.0111 115.276 35.6387L120.746 46.3798C121.082 47.0403 121.259 47.7784 121.259 48.516C121.259 51.1492 119.078 53.2909 116.396 53.2909H112.074V56.0695L118.451 60.245L117.177 62.1208L112.074 58.7798V61.7058L118.451 65.8814L117.177 67.7572L112.074 64.4161V67.3422L118.451 71.5177L117.177 73.3936L112.074 70.0525V72.9785L118.451 77.153L117.177 79.0288L112.074 75.6877V79.3084C113.8 79.5517 115.35 80.3295 116.541 81.4727H116.667ZM103.16 47.3887C102.983 47.7371 102.889 48.1268 102.889 48.516C102.889 49.9058 104.04 51.0364 105.456 51.0364H116.396C117.812 51.0364 118.963 49.9058 118.963 48.516C118.963 48.1268 118.87 47.7371 118.692 47.3887L113.222 36.6477C112.968 36.1495 112.557 35.7797 112.074 35.5408H109.778C109.295 35.7797 108.884 36.1495 108.63 36.6477L103.16 47.3887ZM116.667 88.1224V87.1091C116.667 84.3867 114.691 82.1096 112.074 81.5867V82.6C112.074 85.3213 114.05 87.5995 116.667 88.1224ZM105.185 88.1224C107.802 87.5995 109.778 85.3224 109.778 82.6V81.5867C107.161 82.1096 105.185 84.3867 105.185 87.1091V88.1224ZM79.926 44.2727C79.2936 44.2727 78.7779 44.7791 78.7779 45.4V46.5273H87.9631V45.4C87.9631 44.7791 87.4473 44.2727 86.8149 44.2727H79.926ZM81.0742 52.8605L78.3854 54.1804C77.2104 54.7561 76.4816 55.9153 76.4816 57.205V72.0252C77.1947 71.4434 78.0009 70.9799 78.8844 70.6701L80.2282 64.0754C80.7434 61.5495 82.3899 59.4028 84.6335 58.3356C85.4408 57.9508 86.2066 57.4279 87.0167 56.8747C87.8229 56.3243 88.6829 55.7414 89.6326 55.2807C89.3063 54.8205 88.8769 54.4363 88.3555 54.1804L85.6668 52.8605V48.7818H81.0742V52.8605ZM75.3334 83.7273C72.1682 83.7273 69.5927 86.2559 69.5927 89.3636V92.7455H122.407V89.3636C122.407 86.8185 120.669 84.6878 118.305 83.9898C118.726 84.947 118.963 86.0011 118.963 87.1091V90.4909H117.815C114.89 90.4909 112.333 88.9431 110.926 86.6434C109.519 88.9431 106.962 90.4909 104.037 90.4909H102.889V87.1091C102.889 83.1422 105.889 79.8583 109.778 79.3084V75.6877L104.673 79.0277L103.4 77.1519L109.778 72.9774V70.0514L104.673 73.3914L103.4 71.5155L109.778 67.3411V64.415L104.673 67.755L103.4 65.8792L109.778 61.7047V58.7787L104.673 62.1197L103.4 60.2439L104.689 59.4006C104.345 59.1777 104.003 58.952 103.672 58.7253C102.127 57.669 100.666 56.6727 98.8727 56.6727C98.1932 56.6727 97.1023 57.145 96.5742 57.4417L95.9199 57.811L95.3133 57.3685C94.658 56.8868 93.9841 56.6727 93.1275 56.6727C91.3341 56.6727 89.8736 57.669 88.328 58.7242C87.4809 59.3038 86.6035 59.9026 85.6348 60.3633C84.6338 60.8398 83.8006 61.6249 83.2227 62.5955L83.2223 62.5954L83.2215 62.5976C83.2156 62.6075 83.2098 62.6173 83.204 62.6272C83.206 62.6279 83.208 62.6286 83.2101 62.6292L82.4459 64.752C82.4411 64.7505 82.4363 64.749 82.4314 64.7475L81.3164 70.2226C81.3612 70.2211 81.4049 70.2163 81.4485 70.2115C81.5008 70.2057 81.5529 70.2 81.6068 70.2H93.7038V72.4545H81.6068C79.052 72.4545 76.842 74.0689 76.1082 76.471L74.5687 81.5113C74.8216 81.4876 75.075 81.4727 75.3334 81.4727H86.8149V83.7273H75.3334Z" fill="#322153"/>
<path d="M124.704 95V96H125.704V95H124.704ZM67.2965 95L66.2965 95.0001L66.2966 96H67.2965V95ZM67.2964 92.7455H66.2964V92.7455L67.2964 92.7455ZM71.9557 82.2119L72.3719 83.1212L72.7806 82.9341L72.912 82.5042L71.9557 82.2119ZM73.9083 75.8226L72.9532 75.5263L72.952 75.5303L73.9083 75.8226ZM74.1061 75.3131L75.0249 75.7078L75.0249 75.7078L74.1061 75.3131ZM74.1853 75.1263L75.1098 75.5075L75.1853 75.3244V75.1263H74.1853ZM77.3589 52.1636L77.7994 53.0614L77.7998 53.0612L77.3589 52.1636ZM78.7779 51.4668L79.2187 52.3644L79.7779 52.0898V51.4668H78.7779ZM78.7779 48.7818H79.7779V47.7818H78.7779V48.7818ZM76.4816 48.7818H75.4816V49.7818H76.4816V48.7818ZM90.2593 48.7818V49.7818H91.2593V48.7818H90.2593ZM87.9631 48.7818V47.7818H86.9631V48.7818H87.9631ZM87.9631 51.4668H86.9631V52.09L87.5225 52.3645L87.9631 51.4668ZM89.3831 52.1636L88.9426 53.0614L88.943 53.0616L89.3831 52.1636ZM91.8532 54.5442L90.9763 55.0248L91.3218 55.6553L92.0295 55.5286L91.8532 54.5442ZM96.0713 55.1624L95.5801 56.0334L96.0265 56.2851L96.4916 56.0698L96.0713 55.1624ZM104.981 56.8742L105.545 56.0487L105.545 56.0484L104.981 56.8742ZM104.983 56.8758L104.419 57.7014L104.419 57.7016L104.983 56.8758ZM106.801 58.0185L106.313 58.8913L106.842 59.1871L107.349 58.8551L106.801 58.0185ZM109.778 56.0695L110.326 56.9061L110.778 56.61V56.0695H109.778ZM109.778 53.2909H110.778V52.2909H109.778V53.2909ZM101.106 46.3809L100.215 45.9271L100.214 45.9277L101.106 46.3809ZM106.576 35.6398L107.467 36.0936L107.467 36.0935L106.576 35.6398ZM115.276 35.6387L116.168 35.1849L116.167 35.1848L115.276 35.6387ZM120.746 46.3798L121.638 45.9272L121.637 45.926L120.746 46.3798ZM112.074 53.2909V52.2909H111.074V53.2909H112.074ZM112.074 56.0695H111.074V56.61L111.526 56.9061L112.074 56.0695ZM118.451 60.245L119.279 60.8067L119.85 59.9654L118.999 59.4084L118.451 60.245ZM117.177 62.1208L116.63 62.9575L117.452 63.4961L118.005 62.6826L117.177 62.1208ZM112.074 58.7798L112.622 57.9431L111.074 56.9298V58.7798H112.074ZM112.074 61.7058H111.074V62.2463L111.526 62.5424L112.074 61.7058ZM118.451 65.8814L119.279 66.4431L119.85 65.6018L118.999 65.0447L118.451 65.8814ZM117.177 67.7572L116.63 68.5939L117.452 69.1325L118.005 68.319L117.177 67.7572ZM112.074 64.4161L112.622 63.5795L111.074 62.5662V64.4161H112.074ZM112.074 67.3422H111.074V67.8827L111.526 68.1788L112.074 67.3422ZM118.451 71.5177L119.279 72.0795L119.85 71.2382L118.999 70.6811L118.451 71.5177ZM117.177 73.3936L116.63 74.2302L117.452 74.7688L118.005 73.9553L117.177 73.3936ZM112.074 70.0525L112.622 69.2158L111.074 68.2025V70.0525H112.074ZM112.074 72.9785H111.074V73.5191L111.526 73.8152L112.074 72.9785ZM118.451 77.153L119.279 77.7147L119.85 76.8733L118.999 76.3163L118.451 77.153ZM117.177 79.0288L116.63 79.8655L117.452 80.4041L118.005 79.5906L117.177 79.0288ZM112.074 75.6877L112.622 74.8511L111.074 73.8378V75.6877H112.074ZM112.074 79.3084H111.074V80.1773L111.935 80.2987L112.074 79.3084ZM116.541 81.4727L115.848 82.1941L116.138 82.4727H116.541V81.4727ZM103.16 47.3887L102.269 46.9349L102.268 46.9366L103.16 47.3887ZM118.692 47.3887L117.801 47.8425L117.801 47.8431L118.692 47.3887ZM113.222 36.6477L114.113 36.1939L114.113 36.1935L113.222 36.6477ZM112.074 35.5408L112.517 34.6443L112.308 34.5408H112.074V35.5408ZM109.778 35.5408V34.5408H109.544L109.335 34.6443L109.778 35.5408ZM108.63 36.6477L107.739 36.1935L107.739 36.1939L108.63 36.6477ZM116.667 88.1224L116.471 89.103L117.667 89.3421V88.1224H116.667ZM112.074 81.5867L112.27 80.6061L111.074 80.367V81.5867H112.074ZM105.185 88.1224H104.185V89.3421L105.381 89.103L105.185 88.1224ZM109.778 81.5867H110.778V80.367L109.582 80.6061L109.778 81.5867ZM78.7779 46.5273H77.7779V47.5273H78.7779V46.5273ZM87.9631 46.5273V47.5273H88.9631V46.5273H87.9631ZM78.3854 54.1804L78.8254 55.0784L78.8261 55.0781L78.3854 54.1804ZM81.0742 52.8605L81.5148 53.7581L82.0742 53.4836V52.8605H81.0742ZM76.4816 72.0252H75.4816V74.1317L77.1137 72.8L76.4816 72.0252ZM78.8844 70.6701L79.2154 71.6137L79.7509 71.4259L79.8642 70.8697L78.8844 70.6701ZM80.2282 64.0754L79.2484 63.8756L79.2483 63.8757L80.2282 64.0754ZM84.6335 58.3356L85.0631 59.2386L85.0638 59.2383L84.6335 58.3356ZM87.0167 56.8747L86.4529 56.0489L86.4528 56.0489L87.0167 56.8747ZM89.6326 55.2807L90.069 56.1804L91.1311 55.6652L90.4483 54.7023L89.6326 55.2807ZM88.3555 54.1804L88.7962 53.2827L88.3555 54.1804ZM85.6668 52.8605H84.6668V53.4836L85.2261 53.7581L85.6668 52.8605ZM85.6668 48.7818H86.6668V47.7818H85.6668V48.7818ZM81.0742 48.7818V47.7818H80.0742V48.7818H81.0742ZM69.5927 92.7455H68.5927V93.7455H69.5927V92.7455ZM122.407 92.7455V93.7455H123.407V92.7455H122.407ZM118.305 83.9898L118.588 83.0307L116.521 82.4205L117.39 84.3929L118.305 83.9898ZM118.963 90.4909V91.4909H119.963V90.4909H118.963ZM110.926 86.6434L111.779 86.1216L110.926 84.7269L110.073 86.1216L110.926 86.6434ZM102.889 90.4909H101.889V91.4909H102.889V90.4909ZM109.778 79.3084L109.918 80.2986L110.778 80.177V79.3084H109.778ZM109.778 75.6877H110.778V73.8384L109.23 74.851L109.778 75.6877ZM104.673 79.0277L103.846 79.5895L104.398 80.4028L105.221 79.8645L104.673 79.0277ZM103.4 77.1519L102.852 76.3152L102.001 76.8722L102.572 77.7136L103.4 77.1519ZM109.778 72.9774L110.325 73.8142L110.778 73.5181V72.9774H109.778ZM109.778 70.0514H110.778V68.202L109.23 69.2146L109.778 70.0514ZM104.673 73.3914L103.846 73.9531L104.398 74.7664L105.221 74.2282L104.673 73.3914ZM103.4 71.5155L102.852 70.6788L102.001 71.2358L102.572 72.0773L103.4 71.5155ZM109.778 67.3411L110.325 68.1778L110.778 67.8817V67.3411H109.778ZM109.778 64.415H110.778V62.5656L109.23 63.5782L109.778 64.415ZM104.673 67.755L103.846 68.3168L104.398 69.13L105.221 68.5918L104.673 67.755ZM103.4 65.8792L102.852 65.0424L102.001 65.5994L102.572 66.4409L103.4 65.8792ZM109.778 61.7047L110.325 62.5414L110.778 62.2454V61.7047H109.778ZM109.778 58.7787H110.778V56.9289L109.23 57.942L109.778 58.7787ZM104.673 62.1197L103.846 62.6815L104.398 63.4949L105.221 62.9564L104.673 62.1197ZM103.4 60.2439L102.852 59.407L102.001 59.9639L102.572 60.8056L103.4 60.2439ZM104.689 59.4006L105.236 60.2376L106.522 59.3965L105.233 58.5613L104.689 59.4006ZM103.672 58.7253L104.238 57.9005L104.236 57.8996L103.672 58.7253ZM96.5742 57.4417L96.0844 56.5698L96.0826 56.5709L96.5742 57.4417ZM95.9199 57.811L95.3305 58.6189L95.8508 58.9984L96.4115 58.6818L95.9199 57.811ZM95.3133 57.3685L94.7211 58.1743L94.724 58.1763L95.3133 57.3685ZM88.328 58.7242L87.7642 57.8983L87.7633 57.8989L88.328 58.7242ZM85.6348 60.3633L85.2053 59.4603L85.205 59.4604L85.6348 60.3633ZM83.2227 62.5955L82.8693 63.531L83.6532 63.8271L84.0819 63.1071L83.2227 62.5955ZM83.2223 62.5954L83.5757 61.6599L82.6254 61.3009L82.2814 62.2567L83.2223 62.5954ZM83.2215 62.5976L84.0809 63.1088L84.1299 63.0265L84.1624 62.9363L83.2215 62.5976ZM83.204 62.6272L82.3417 62.1208L81.7114 63.1941L82.8952 63.5784L83.204 62.6272ZM83.2101 62.6292L84.151 62.9679L84.5001 61.998L83.52 61.6785L83.2101 62.6292ZM82.4459 64.752L82.1471 65.7063L83.0621 65.9928L83.3868 65.0907L82.4459 64.752ZM82.4314 64.7475L82.7263 63.792L81.6718 63.4665L81.4515 64.5479L82.4314 64.7475ZM81.3164 70.2226L80.3365 70.023L80.0836 71.2644L81.3498 71.222L81.3164 70.2226ZM81.4485 70.2115L81.3393 69.2175L81.3393 69.2175L81.4485 70.2115ZM93.7038 70.2H94.7038V69.2H93.7038V70.2ZM93.7038 72.4545V73.4545H94.7038V72.4545H93.7038ZM76.1082 76.471L75.1518 76.1788L75.1518 76.1789L76.1082 76.471ZM74.5687 81.5113L73.6124 81.2191L73.1766 82.646L74.6619 82.5069L74.5687 81.5113ZM86.8149 81.4727H87.8149V80.4727H86.8149V81.4727ZM86.8149 83.7273V84.7273H87.8149V83.7273H86.8149ZM125.704 89.3636C125.704 84.443 121.633 80.4727 116.667 80.4727V82.4727C120.564 82.4727 123.704 85.582 123.704 89.3636H125.704ZM125.704 92.7455V89.3636H123.704V92.7455H125.704ZM125.704 95V92.7455H123.704V95H125.704ZM67.2965 96H124.704V94H67.2965V96ZM66.2964 92.7455L66.2965 95.0001L68.2965 94.9999L68.2964 92.7454L66.2964 92.7455ZM66.2964 89.3636V92.7455H68.2964V89.3636H66.2964ZM71.5395 81.3027C68.4609 82.7119 66.2964 85.7816 66.2964 89.3636H68.2964C68.2964 86.6146 69.9575 84.2264 72.3719 83.1212L71.5395 81.3027ZM72.952 75.5303L70.9994 81.9197L72.912 82.5042L74.8647 76.1149L72.952 75.5303ZM73.1873 74.9184C73.1189 75.0777 73.0261 75.2915 72.9532 75.5263L74.8634 76.1189C74.9001 76.0006 74.9502 75.8819 75.0249 75.7078L73.1873 74.9184ZM73.2608 74.7452C73.2382 74.7999 73.2144 74.8553 73.1873 74.9184L75.0249 75.7078C75.0511 75.6469 75.0807 75.5781 75.1098 75.5075L73.2608 74.7452ZM73.1853 57.205V75.1263H75.1853V57.205H73.1853ZM76.9185 51.2659C74.6247 52.3913 73.1853 54.6676 73.1853 57.205H75.1853C75.1853 55.4446 76.1779 53.857 77.7994 53.0614L76.9185 51.2659ZM78.3371 50.5692L76.9181 51.266L77.7998 53.0612L79.2187 52.3644L78.3371 50.5692ZM77.7779 48.7818V51.4668H79.7779V48.7818H77.7779ZM76.4816 49.7818H78.7779V47.7818H76.4816V49.7818ZM75.4816 45.4V48.7818H77.4816V45.4H75.4816ZM79.926 41.0182C77.4923 41.0182 75.4816 42.9662 75.4816 45.4H77.4816C77.4816 44.1052 78.5621 43.0182 79.926 43.0182V41.0182ZM86.8149 41.0182H79.926V43.0182H86.8149V41.0182ZM91.2593 45.4C91.2593 42.9662 89.2486 41.0182 86.8149 41.0182V43.0182C88.1788 43.0182 89.2593 44.1052 89.2593 45.4H91.2593ZM91.2593 48.7818V45.4H89.2593V48.7818H91.2593ZM87.9631 49.7818H90.2593V47.7818H87.9631V49.7818ZM88.9631 51.4668V48.7818H86.9631V51.4668H88.9631ZM89.8236 51.2659L88.4036 50.5691L87.5225 52.3645L88.9426 53.0614L89.8236 51.2659ZM92.7301 54.0636C92.0782 52.8741 91.0854 51.8843 89.8232 51.2657L88.943 53.0616C89.8145 53.4888 90.5114 54.1766 90.9763 55.0248L92.7301 54.0636ZM93.1275 53.4182C92.6025 53.4182 92.1199 53.4805 91.6769 53.5599L92.0295 55.5286C92.4039 55.4615 92.761 55.4182 93.1275 55.4182V53.4182ZM96.5625 54.2913C95.5153 53.7008 94.3747 53.4182 93.1275 53.4182V55.4182C94.0565 55.4182 94.8546 55.6243 95.5801 56.0334L96.5625 54.2913ZM98.8727 53.4182C97.6342 53.4182 96.3599 53.9266 95.651 54.255L96.4916 56.0698C97.1517 55.764 98.0929 55.4182 98.8727 55.4182V53.4182ZM105.545 56.0484C103.888 54.9168 101.736 53.4182 98.8727 53.4182V55.4182C101.034 55.4182 102.701 56.5283 104.417 57.7L105.545 56.0484ZM105.548 56.0503L105.545 56.0487L104.417 57.6998L104.419 57.7014L105.548 56.0503ZM107.289 57.1457C106.72 56.8277 106.151 56.4625 105.548 56.0501L104.419 57.7016C105.05 58.1324 105.673 58.5334 106.313 58.8913L107.289 57.1457ZM109.23 55.2328L106.253 57.1819L107.349 58.8551L110.326 56.9061L109.23 55.2328ZM108.778 53.2909V56.0695H110.778V53.2909H108.778ZM105.456 54.2909H109.778V52.2909H105.456V54.2909ZM99.5927 48.516C99.5927 51.7187 102.239 54.2909 105.456 54.2909V52.2909C103.309 52.2909 101.593 50.5797 101.593 48.516H99.5927ZM100.214 45.9277C99.8081 46.7266 99.5927 47.6199 99.5927 48.516H101.593C101.593 47.9369 101.733 47.354 101.997 46.8341L100.214 45.9277ZM105.685 35.186L100.215 45.9271L101.997 46.8347L107.467 36.0936L105.685 35.186ZM110.926 32C108.703 32 106.687 33.2159 105.684 35.1862L107.467 36.0935C108.122 34.8064 109.44 34 110.926 34V32ZM116.167 35.1848C115.164 33.2158 113.149 32 110.926 32V34C112.412 34 113.73 34.8065 114.385 36.0927L116.167 35.1848ZM121.637 45.926L116.168 35.1849L114.385 36.0925L119.855 46.8336L121.637 45.926ZM122.259 48.516C122.259 47.6198 122.044 46.7267 121.638 45.9272L119.855 46.8324C120.119 47.3538 120.259 47.937 120.259 48.516H122.259ZM116.396 54.2909C119.613 54.2909 122.259 51.7187 122.259 48.516H120.259C120.259 50.5797 118.543 52.2909 116.396 52.2909V54.2909ZM112.074 54.2909H116.396V52.2909H112.074V54.2909ZM113.074 56.0695V53.2909H111.074V56.0695H113.074ZM118.999 59.4084L112.622 55.2328L111.526 56.9061L117.903 61.0816L118.999 59.4084ZM118.005 62.6826L119.279 60.8067L117.624 59.6832L116.35 61.5591L118.005 62.6826ZM111.526 59.6164L116.63 62.9575L117.725 61.2842L112.622 57.9431L111.526 59.6164ZM113.074 61.7058V58.7798H111.074V61.7058H113.074ZM118.999 65.0447L112.622 60.8692L111.526 62.5424L117.903 66.718L118.999 65.0447ZM118.005 68.319L119.279 66.4431L117.624 65.3196L116.35 67.1955L118.005 68.319ZM111.526 65.2528L116.63 68.5939L117.725 66.9206L112.622 63.5795L111.526 65.2528ZM113.074 67.3422V64.4161H111.074V67.3422H113.074ZM118.999 70.6811L112.622 66.5056L111.526 68.1788L117.903 72.3543L118.999 70.6811ZM118.005 73.9553L119.279 72.0795L117.624 70.956L116.35 72.8318L118.005 73.9553ZM111.526 70.8891L116.63 74.2302L117.725 72.5569L112.622 69.2158L111.526 70.8891ZM113.074 72.9785V70.0525H111.074V72.9785H113.074ZM118.999 76.3163L112.622 72.1419L111.526 73.8152L117.904 77.9897L118.999 76.3163ZM118.005 79.5906L119.279 77.7147L117.624 76.5912L116.35 78.4671L118.005 79.5906ZM111.526 76.5244L116.63 79.8655L117.725 78.1922L112.622 74.8511L111.526 76.5244ZM113.074 79.3084V75.6877H111.074V79.3084H113.074ZM117.233 80.7514C115.893 79.4649 114.15 78.5913 112.214 78.3182L111.935 80.2987C113.449 80.5122 114.807 81.1941 115.848 82.1941L117.233 80.7514ZM116.667 80.4727H116.541V82.4727H116.667V80.4727ZM103.889 48.516C103.889 48.286 103.945 48.051 104.052 47.8408L102.268 46.9366C102.021 47.4232 101.889 47.9676 101.889 48.516H103.889ZM105.456 50.0364C104.575 50.0364 103.889 49.3363 103.889 48.516H101.889C101.889 50.4753 103.506 52.0364 105.456 52.0364V50.0364ZM116.396 50.0364H105.456V52.0364H116.396V50.0364ZM117.963 48.516C117.963 49.3363 117.277 50.0364 116.396 50.0364V52.0364C118.346 52.0364 119.963 50.4753 119.963 48.516H117.963ZM117.801 47.8431C117.907 48.0503 117.963 48.2842 117.963 48.516H119.963C119.963 47.9694 119.833 47.424 119.583 46.9343L117.801 47.8431ZM112.331 37.1015L117.801 47.8425L119.583 46.9349L114.113 36.1939L112.331 37.1015ZM111.631 36.4372C111.948 36.5941 112.188 36.8208 112.331 37.1019L114.113 36.1935C113.749 35.4782 113.166 34.9652 112.517 34.6443L111.631 36.4372ZM109.778 36.5408H112.074V34.5408H109.778V36.5408ZM109.521 37.1019C109.664 36.8208 109.904 36.5941 110.221 36.4372L109.335 34.6443C108.686 34.9652 108.103 35.4782 107.739 36.1935L109.521 37.1019ZM104.051 47.8425L109.521 37.1015L107.739 36.1939L102.269 46.9349L104.051 47.8425ZM115.667 87.1091V88.1224H117.667V87.1091H115.667ZM111.878 82.5673C114.05 83.0012 115.667 84.886 115.667 87.1091H117.667C117.667 83.8874 115.332 81.2179 112.27 80.6061L111.878 82.5673ZM113.074 82.6V81.5867H111.074V82.6H113.074ZM116.863 87.1418C114.691 86.7079 113.074 84.8222 113.074 82.6H111.074C111.074 85.8205 113.409 88.4912 116.471 89.103L116.863 87.1418ZM108.778 82.6C108.778 84.8231 107.161 86.7079 104.989 87.1418L105.381 89.103C108.443 88.4912 110.778 85.8217 110.778 82.6H108.778ZM108.778 81.5867V82.6H110.778V81.5867H108.778ZM106.185 87.1091C106.185 84.886 107.802 83.0012 109.974 82.5673L109.582 80.6061C106.52 81.2179 104.185 83.8874 104.185 87.1091H106.185ZM106.185 88.1224V87.1091H104.185V88.1224H106.185ZM79.7779 45.4C79.7779 45.3486 79.8285 45.2727 79.926 45.2727V43.2727C78.7587 43.2727 77.7779 44.2096 77.7779 45.4H79.7779ZM79.7779 46.5273V45.4H77.7779V46.5273H79.7779ZM87.9631 45.5273H78.7779V47.5273H87.9631V45.5273ZM86.9631 45.4V46.5273H88.9631V45.4H86.9631ZM86.8149 45.2727C86.9124 45.2727 86.9631 45.3486 86.9631 45.4H88.9631C88.9631 44.2096 87.9822 43.2727 86.8149 43.2727V45.2727ZM79.926 45.2727H86.8149V43.2727H79.926V45.2727ZM78.8261 55.0781L81.5148 53.7581L80.6335 51.9628L77.9448 53.2827L78.8261 55.0781ZM77.4816 57.205C77.4816 56.3034 77.9874 55.489 78.8254 55.0784L77.9454 53.2824C76.4334 54.0233 75.4816 55.5273 75.4816 57.205H77.4816ZM77.4816 72.0252V57.205H75.4816V72.0252H77.4816ZM78.5534 69.7264C77.5545 70.0768 76.6473 70.5994 75.8494 71.2504L77.1137 72.8C77.742 72.2874 78.4472 71.8831 79.2154 71.6137L78.5534 69.7264ZM79.2483 63.8757L77.9045 70.4704L79.8642 70.8697L81.2081 64.2751L79.2483 63.8757ZM84.204 57.4325C81.6641 58.6408 79.8235 61.0558 79.2484 63.8756L81.208 64.2753C81.6633 62.0432 83.1158 60.1649 85.0631 59.2386L84.204 57.4325ZM86.4528 56.0489C85.6293 56.6113 84.9282 57.0874 84.2033 57.4328L85.0638 59.2383C85.9534 58.8143 86.784 58.2446 87.5806 57.7006L86.4528 56.0489ZM89.1961 54.381C88.1706 54.8785 87.2532 55.5024 86.4529 56.0489L87.5806 57.7006C88.3926 57.1462 89.1952 56.6043 90.069 56.1804L89.1961 54.381ZM87.9148 55.0781C88.2735 55.2542 88.5783 55.5227 88.8168 55.8591L90.4483 54.7023C90.0343 54.1184 89.4802 53.6185 88.7962 53.2827L87.9148 55.0781ZM85.2261 53.7581L87.9148 55.0781L88.7962 53.2827L86.1074 51.9628L85.2261 53.7581ZM84.6668 48.7818V52.8605H86.6668V48.7818H84.6668ZM81.0742 49.7818H85.6668V47.7818H81.0742V49.7818ZM82.0742 52.8605V48.7818H80.0742V52.8605H82.0742ZM70.5927 89.3636C70.5927 86.8254 72.7031 84.7273 75.3334 84.7273V82.7273C71.6333 82.7273 68.5927 85.6864 68.5927 89.3636H70.5927ZM70.5927 92.7455V89.3636H68.5927V92.7455H70.5927ZM122.407 91.7455H69.5927V93.7455H122.407V91.7455ZM121.407 89.3636V92.7455H123.407V89.3636H121.407ZM118.022 84.9489C119.992 85.5307 121.407 87.2938 121.407 89.3636H123.407C123.407 86.3431 121.346 83.8449 118.588 83.0307L118.022 84.9489ZM119.963 87.1091C119.963 85.8572 119.695 84.6662 119.22 83.5868L117.39 84.3929C117.757 85.2278 117.963 86.145 117.963 87.1091H119.963ZM119.963 90.4909V87.1091H117.963V90.4909H119.963ZM117.815 91.4909H118.963V89.4909H117.815V91.4909ZM110.073 87.1652C111.655 89.7514 114.529 91.4909 117.815 91.4909V89.4909C115.25 89.4909 113.01 88.1348 111.779 86.1216L110.073 87.1652ZM104.037 91.4909C107.323 91.4909 110.197 89.7514 111.779 87.1652L110.073 86.1216C108.842 88.1348 106.602 89.4909 104.037 89.4909V91.4909ZM102.889 91.4909H104.037V89.4909H102.889V91.4909ZM101.889 87.1091V90.4909H103.889V87.1091H101.889ZM109.638 78.3183C105.279 78.9346 101.889 82.6207 101.889 87.1091H103.889C103.889 83.6636 106.499 80.782 109.918 80.2986L109.638 78.3183ZM108.778 75.6877V79.3084H110.778V75.6877H108.778ZM105.221 79.8645L110.325 76.5245L109.23 74.851L104.126 78.191L105.221 79.8645ZM102.572 77.7136L103.846 79.5895L105.501 78.466L104.227 76.5901L102.572 77.7136ZM109.23 72.1407L102.852 76.3152L103.947 77.9886L110.325 73.8142L109.23 72.1407ZM108.778 70.0514V72.9774H110.778V70.0514H108.778ZM105.221 74.2282L110.325 70.8882L109.23 69.2146L104.126 72.5546L105.221 74.2282ZM102.572 72.0773L103.846 73.9531L105.501 72.8296L104.227 70.9538L102.572 72.0773ZM109.23 66.5044L102.852 70.6788L103.947 72.3522L110.325 68.1778L109.23 66.5044ZM108.778 64.415V67.3411H110.778V64.415H108.778ZM105.221 68.5918L110.325 65.2518L109.23 63.5782L104.126 66.9182L105.221 68.5918ZM102.572 66.4409L103.846 68.3168L105.501 67.1933L104.227 65.3174L102.572 66.4409ZM109.23 60.868L102.852 65.0424L103.947 66.7159L110.325 62.5414L109.23 60.868ZM108.778 58.7787V61.7047H110.778V58.7787H108.778ZM105.221 62.9564L110.326 59.6154L109.23 57.942L104.126 61.283L105.221 62.9564ZM102.572 60.8056L103.846 62.6815L105.501 61.558L104.227 59.6821L102.572 60.8056ZM104.142 58.5637L102.852 59.407L103.947 61.0808L105.236 60.2376L104.142 58.5637ZM103.107 59.55C103.447 59.7834 103.797 60.0142 104.146 60.24L105.233 58.5613C104.893 58.3413 104.559 58.1207 104.238 57.9005L103.107 59.55ZM98.8727 57.6727C100.305 57.6727 101.509 58.4579 103.108 59.5509L104.236 57.8996C102.745 56.8801 101.028 55.6727 98.8727 55.6727V57.6727ZM97.064 58.3135C97.2804 58.1919 97.6363 58.022 98.0105 57.885C98.409 57.739 98.7155 57.6727 98.8727 57.6727V55.6727C98.3504 55.6727 97.7717 55.8425 97.3228 56.0069C96.8497 56.1802 96.396 56.3947 96.0844 56.5698L97.064 58.3135ZM96.4115 58.6818L97.0658 58.3125L96.0826 56.5709L95.4283 56.9402L96.4115 58.6818ZM94.724 58.1763L95.3305 58.6189L96.5093 57.0031L95.9027 56.5606L94.724 58.1763ZM93.1275 57.6727C93.7836 57.6727 94.2473 57.8261 94.7211 58.1743L95.9055 56.5627C95.0686 55.9476 94.1846 55.6727 93.1275 55.6727V57.6727ZM88.8918 59.5501C90.4916 58.458 91.6955 57.6727 93.1275 57.6727V55.6727C90.9726 55.6727 89.2557 56.88 87.7642 57.8983L88.8918 59.5501ZM86.0643 61.2664C87.1147 60.7668 88.0546 60.1229 88.8927 59.5495L87.7633 57.8989C86.9072 58.4846 86.0924 59.0384 85.2053 59.4603L86.0643 61.2664ZM84.0819 63.1071C84.5658 62.2944 85.2546 61.6518 86.0646 61.2663L85.205 59.4604C84.0129 60.0278 83.0354 60.9554 82.3635 62.084L84.0819 63.1071ZM82.8689 63.5308L82.8693 63.531L83.5761 61.66L83.5757 61.6599L82.8689 63.5308ZM84.1624 62.9363L84.1632 62.934L82.2814 62.2567L82.2806 62.2589L84.1624 62.9363ZM84.0662 63.1336C84.0712 63.1253 84.076 63.117 84.0809 63.1088L82.362 62.0863C82.3552 62.0979 82.3484 62.1094 82.3417 62.1208L84.0662 63.1336ZM83.52 61.6785C83.5179 61.6778 83.5154 61.677 83.5127 61.6761L82.8952 63.5784C82.8966 63.5788 82.8982 63.5794 82.9001 63.58L83.52 61.6785ZM83.3868 65.0907L84.151 62.9679L82.2692 62.2905L81.505 64.4133L83.3868 65.0907ZM82.1365 65.703C82.1401 65.7041 82.1436 65.7052 82.1471 65.7063L82.7447 63.7977C82.7386 63.7957 82.7324 63.7938 82.7263 63.792L82.1365 65.703ZM82.2962 70.4221L83.4113 64.947L81.4515 64.5479L80.3365 70.023L82.2962 70.4221ZM81.3393 69.2175C81.3159 69.22 81.3037 69.2213 81.2929 69.2223C81.2832 69.2232 81.2809 69.2232 81.2829 69.2231L81.3498 71.222C81.4388 71.219 81.5199 71.2097 81.5578 71.2055L81.3393 69.2175ZM81.6068 69.2C81.4894 69.2 81.3834 69.2126 81.3393 69.2175L81.5577 71.2055C81.5714 71.204 81.581 71.2029 81.59 71.202C81.5987 71.2011 81.6045 71.2006 81.6086 71.2003C81.6169 71.1996 81.6149 71.2 81.6068 71.2V69.2ZM93.7038 69.2H81.6068V71.2H93.7038V69.2ZM94.7038 72.4545V70.2H92.7038V72.4545H94.7038ZM81.6068 73.4545H93.7038V71.4545H81.6068V73.4545ZM77.0646 76.7632C77.6669 74.7916 79.4813 73.4545 81.6068 73.4545V71.4545C78.6227 71.4545 76.0172 73.3463 75.1518 76.1788L77.0646 76.7632ZM75.5251 81.8034L77.0646 76.7631L75.1518 76.1789L73.6124 81.2191L75.5251 81.8034ZM75.3334 80.4727C75.0367 80.4727 74.7513 80.4898 74.4755 80.5156L74.6619 82.5069C74.8919 82.4854 75.1133 82.4727 75.3334 82.4727V80.4727ZM86.8149 80.4727H75.3334V82.4727H86.8149V80.4727ZM87.8149 83.7273V81.4727H85.8149V83.7273H87.8149ZM75.3334 84.7273H86.8149V82.7273H75.3334V84.7273Z" fill="#322153" mask="url(#path-5-inside-1)"/>
</svg>
